<?xml version="1.0" encoding="UTF-8"?>
<!DOCTYPE svg PUBLIC "-//W3C//DTD SVG 1.1//EN" "http://www.w3.org/Graphics/SVG/1.1/DTD/svg11.dtd">
<!-- Creator: CorelDRAW X7 -->
<svg xmlns="http://www.w3.org/2000/svg" xml:space="preserve" width="100mm" height="60mm" version="1.1" style="shape-rendering:geometricPrecision; text-rendering:geometricPrecision; image-rendering:optimizeQuality; fill-rule:evenodd; clip-rule:evenodd"
viewBox="0 0 10000 6000"
 xmlns:xlink="http://www.w3.org/1999/xlink">
 <defs>
  <style type="text/css">
   <![CDATA[
    .fil0 {fill:#4A4947}
    .fil3 {fill:#575956}
    .fil2 {fill:#60152E}
    .fil1 {fill:#818181}
    .fil4 {fill:#878988}
   ]]>
  </style>
 </defs>
 <g id="Capa_x0020_1">
  <metadata id="CorelCorpID_0Corel-Layer"/>
  <g id="_3041516317136">
   <g>
    <polygon class="fil0" points="5505,3769 5551,3769 5551,3815 5915,3815 5915,3769 5961,3769 5961,3678 5642,3678 5642,3541 5915,3541 5915,3450 5642,3450 5642,3314 5961,3314 5961,3223 5505,3223 "/>
    <path class="fil0" d="M7647 3633l137 0 0 45 -137 0 0 -45zm-137 91l46 0 0 45 91 0 0 46 91 0 0 -46 91 0 0 46 92 0 0 -410 -46 0 0 -46 -319 0 0 137 91 0 0 -46 137 0 0 91 -228 0 0 46 -46 0 0 137z"/>
    <path class="fil0" d="M6872 3633l137 0 0 45 -137 0 0 -45zm-91 -228l-45 0 0 45 45 0 0 46 46 0 0 -46 137 0 0 46 45 0 0 45 -228 0 0 46 -45 0 0 182 91 0 0 46 137 0 0 -46 91 0 0 46 45 0 0 -46 46 0 0 -273 -46 0 0 -91 -45 0 0 -46 -274 0 0 46z"/>
    <polygon class="fil0" points="6052,3405 6007,3405 6007,3587 6098,3587 6098,3633 6234,3633 6234,3678 6007,3678 6007,3769 6098,3769 6098,3815 6234,3815 6234,3769 6326,3769 6326,3724 6371,3724 6371,3587 6326,3587 6326,3541 6189,3541 6189,3496 6143,3496 6143,3450 6280,3450 6280,3496 6326,3496 6326,3359 6052,3359 "/>
    <polygon class="fil0" points="6417,3359 6371,3359 6371,3450 6417,3450 6417,3678 6462,3678 6462,3769 6553,3769 6553,3815 6645,3815 6645,3769 6690,3769 6690,3678 6553,3678 6553,3450 6690,3450 6690,3359 6553,3359 6553,3268 6417,3268 "/>
    <polygon class="fil0" points="7510,3724 7465,3724 7465,3678 7374,3678 7374,3450 7465,3450 7465,3359 7374,3359 7374,3268 7237,3268 7237,3359 7146,3359 7146,3450 7237,3450 7237,3724 7283,3724 7283,3769 7328,3769 7328,3815 7419,3815 7419,3769 7510,3769 "/>
    <polygon class="fil0" points="8012,3769 8057,3769 8057,3815 8103,3815 8103,3769 8149,3769 8149,3177 8012,3177 "/>
   </g>
   <g>
    <polygon class="fil1" points="2269,1993 2269,3041 2315,3041 2315,3086 2543,3086 2543,3041 2588,3041 2588,2312 2634,2312 2634,2221 2816,2221 2816,2312 2999,2312 2999,2085 3226,2085 3226,2312 3363,2312 3363,2221 3591,2221 3591,2904 3637,2904 3637,3086 3910,3086 3910,1948 2315,1948 2315,1993 "/>
    <path class="fil1" d="M3545 3769l46 0 0 46 -46 0 0 -46zm-273 -546l46 0 0 45 -46 0 0 -45zm-365 45l0 137 411 0 0 91 -411 0 0 228 411 0 0 136 -46 0 0 -45 -319 0 0 136 820 0 0 -45 46 0 0 -91 46 0 0 -91 45 0 0 -91 -273 0 0 45 -46 0 0 46 -46 0 0 -183 46 0 0 46 91 0 0 -46 228 0 0 -227 -273 0 0 45 -46 0 0 46 -46 0 0 -137 46 0 0 -45 46 0 0 45 45 0 0 -45 183 0 0 45 45 0 0 -136 -957 0 0 136 -46 0z"/>
    <polygon class="fil1" points="2999,2676 2953,2676 2953,2722 2907,2722 2907,3086 3272,3086 3272,3041 3318,3041 3318,2767 3272,2767 3272,2676 3226,2676 3226,2631 2999,2631 "/>
    <polygon class="fil1" points="3500,4862 3454,4862 3454,4907 3409,4907 3409,5044 3454,5044 3454,5089 3500,5089 3500,5135 3682,5135 3682,5089 3728,5089 3728,5044 3773,5044 3773,4907 3728,4907 3728,4862 3682,4862 3682,4816 3500,4816 "/>
    <polygon class="fil1" points="4229,4361 4184,4361 4184,4407 4138,4407 4138,4452 4092,4452 4092,4543 4138,4543 4138,4589 4184,4589 4184,4634 4229,4634 4229,4680 4366,4680 4366,4634 4411,4634 4411,4589 4457,4589 4457,4452 4411,4452 4411,4407 4366,4407 4366,4361 4320,4361 4320,4315 4229,4315 "/>
    <polygon class="fil1" points="4639,2767 4594,2767 4594,2813 4548,2813 4548,2859 4503,2859 4503,2950 4548,2950 4548,2995 4594,2995 4594,3041 4639,3041 4639,3086 4776,3086 4776,3041 4822,3041 4822,2995 4867,2995 4867,2859 4822,2859 4822,2813 4776,2813 4776,2767 4730,2767 4730,2722 4639,2722 "/>
    <polygon class="fil1" points="4639,3633 4548,3633 4548,3678 4503,3678 4503,3860 4548,3860 4548,3906 4594,3906 4594,3951 4730,3951 4730,3906 4776,3906 4776,3860 4822,3860 4822,3678 4776,3678 4776,3633 4730,3633 4730,3587 4639,3587 "/>
    <polygon class="fil1" points="4639,1948 4594,1948 4594,1993 4548,1993 4548,2039 4503,2039 4503,2130 4548,2130 4548,2176 4594,2176 4594,2221 4639,2221 4639,2267 4776,2267 4776,2221 4822,2221 4822,2176 4867,2176 4867,2039 4822,2039 4822,1993 4776,1993 4776,1948 4730,1948 4730,1902 4639,1902 "/>
    <polygon class="fil1" points="1495,2767 1403,2767 1403,2813 1358,2813 1358,2995 1403,2995 1403,3041 1449,3041 1449,3086 1586,3086 1586,3041 1631,3041 1631,2995 1677,2995 1677,2813 1631,2813 1631,2767 1586,2767 1586,2722 1495,2722 "/>
    <polygon class="fil1" points="1495,3633 1449,3633 1449,3678 1403,3678 1403,3724 1358,3724 1358,3815 1403,3815 1403,3860 1449,3860 1449,3906 1495,3906 1495,3951 1631,3951 1631,3906 1677,3906 1677,3860 1723,3860 1723,3724 1677,3724 1677,3678 1631,3678 1631,3633 1586,3633 1586,3587 1495,3587 "/>
    <polygon class="fil1" points="1495,1948 1403,1948 1403,1993 1358,1993 1358,2176 1403,2176 1403,2221 1449,2221 1449,2267 1586,2267 1586,2221 1631,2221 1631,2176 1677,2176 1677,1993 1631,1993 1631,1948 1540,1948 1540,1902 1495,1902 "/>
    <polygon class="fil1" points="2543,4862 2497,4862 2497,4907 2452,4907 2452,5044 2497,5044 2497,5089 2543,5089 2543,5135 2725,5135 2725,5089 2771,5089 2771,4998 2816,4998 2816,4953 2771,4953 2771,4862 2725,4862 2725,4816 2543,4816 "/>
    <polygon class="fil1" points="1905,4361 1814,4361 1814,4407 1768,4407 1768,4589 1814,4589 1814,4634 1859,4634 1859,4680 1996,4680 1996,4634 2042,4634 2042,4589 2087,4589 2087,4407 2042,4407 2042,4361 1950,4361 1950,4315 1905,4315 "/>
    <polygon class="fil1" points="2269,3359 2269,3541 2543,3541 2543,3587 2634,3587 2634,3359 2543,3359 2543,3314 2315,3314 2315,3359 "/>
    <polygon class="fil1" points="2361,3860 2406,3860 2406,3906 2452,3906 2452,3951 2588,3951 2588,3815 2634,3815 2634,3678 2588,3678 2588,3633 2315,3633 2315,3769 2361,3769 "/>
    <polygon class="fil1" points="2269,3132 2269,3223 2315,3223 2315,3268 2361,3268 2361,3223 2497,3223 2497,3268 2588,3268 2588,3132 "/>
    <polygon class="fil1" points="2862,2540 2999,2540 2999,2403 2862,2403 "/>
    <polygon class="fil1" points="3226,2540 3363,2540 3363,2403 3226,2403 "/>
   </g>
   <g>
    <path class="fil2" d="M6326 2585l-46 0 0 46 -319 0 0 -546 273 0 0 45 92 0 0 91 45 0 0 319 -45 0 0 45zm-821 410l866 0 0 -45 137 0 0 -46 45 0 0 -45 92 0 0 -46 45 0 0 -46 46 0 0 -91 45 0 0 -91 46 0 0 -455 -46 0 0 -91 -45 0 0 -46 -46 0 0 -45 -45 0 0 -46 -46 0 0 -45 -46 0 0 -46 -91 0 0 -45 -182 0 0 -46 -775 0 0 1275z"/>
    <polygon class="fil2" points="7602,2995 8012,2995 8012,2585 8559,2585 8559,2267 8012,2267 8012,2085 8604,2085 8604,1720 7602,1720 "/>
    <polygon class="fil2" points="6964,2995 7419,2995 7419,1720 6964,1720 "/>
    <polygon class="fil2" points="2953,1902 3226,1902 3226,1402 3454,1402 3454,1128 3226,1128 3226,946 2953,946 2953,1128 2771,1128 2771,1402 2953,1402 "/>
    <path class="fil2" d="M7419 4270l91 0 0 91 -91 0 0 -91zm-136 0l91 0 0 91 -91 0 0 -91zm-92 -91l-45 0 0 45 -46 0 0 183 46 0 0 45 45 0 0 46 228 0 0 -46 46 0 0 -45 45 0 0 91 183 0 0 -228 91 0 0 137 45 0 0 45 46 0 0 46 319 0 0 -365 -137 0 0 137 -45 0 0 91 -46 0 0 -228 -456 0 0 46 -45 0 0 -46 -274 0 0 46z"/>
    <polygon class="fil2" points="6007,4179 6007,4452 6098,4452 6098,4498 6326,4498 6326,4452 6371,4452 6371,4407 6326,4407 6326,4361 6417,4361 6417,4498 6599,4498 6599,4270 6690,4270 6690,4133 6417,4133 6417,4270 6371,4270 6371,4179 6326,4179 6326,4133 6052,4133 6052,4179 "/>
    <polygon class="fil2" points="6007,4179 6007,4088 6052,4088 6052,4042 5870,4042 5870,4088 5824,4088 5824,4179 5779,4179 5779,4224 5733,4224 5733,4088 5687,4088 5687,4042 5505,4042 5505,4133 5551,4133 5551,4224 5596,4224 5596,4361 5642,4361 5642,4452 5687,4452 5687,4498 5870,4498 5870,4407 5915,4407 5915,4315 5961,4315 5961,4179 "/>
    <polygon class="fil2" points="6736,4315 6690,4315 6690,4452 6736,4452 6736,4498 7055,4498 7055,4179 7009,4179 7009,4133 6736,4133 "/>
    <polygon class="fil2" points="8240,4270 8331,4270 8331,4315 8285,4315 8285,4361 8240,4361 8240,4498 8604,4498 8604,4361 8468,4361 8468,4315 8513,4315 8513,4270 8559,4270 8559,4224 8604,4224 8604,4133 8240,4133 "/>
   </g>
   <path class="fil3" d="M3044 4407l91 0 0 45 46 0 0 91 -137 0 0 -136zm593 -137l45 0 0 -46 91 0 0 137 -136 0 0 -91zm-1231 0l46 0 0 -46 91 0 0 46 45 0 0 45 -45 0 0 46 -91 0 0 -46 -46 0 0 -45zm593 -46l227 0 0 46 -227 0 0 -46zm364 -45l91 0 0 45 -91 0 0 -45zm-592 0l91 0 0 45 -91 0 0 -45zm729 -46l45 0 0 46 -45 0 0 -46zm-820 0l45 0 0 46 -45 0 0 -46zm957 -45l0 45 -46 0 0 -45 46 0zm-1049 0l46 0 0 45 -46 0 0 -45zm0 0l-45 0 0 -46 45 0 0 46zm1459 -319l137 0 0 91 -46 0 0 46 -46 0 0 -46 -45 0 0 -91zm-1914 137l-91 0 0 -137 136 0 0 91 -45 0 0 46zm2096 -774l-91 0 0 -137 137 0 0 91 -46 0 0 46zm-2187 0l-92 0 0 -137 137 0 0 91 -45 0 0 46zm2096 -820l137 0 0 137 -137 0 0 -137zm-2096 137l-92 0 0 -137 137 0 0 91 -45 0 0 46zm-92 -729l46 0 0 -45 91 0 0 136 -137 0 0 -91zm2142 0l46 0 0 -45 91 0 0 136 -91 0 0 -45 -46 0 0 -46zm-638 -91l137 0 0 137 -91 0 0 -46 -46 0 0 -91zm-866 46l46 0 0 -46 91 0 0 137 -91 0 0 -46 -46 0 0 -45zm1049 273l319 0 0 1685 -46 0 0 136 -45 0 0 91 -46 0 0 91 -46 0 0 46 -45 0 0 45 -46 0 0 46 -45 0 0 -91 -1094 0 0 45 -46 0 0 -45 -45 0 0 -46 -46 0 0 -45 -45 0 0 -91 -46 0 0 -137 -46 0 0 -1730 319 0 0 -46 365 0 0 -455 -1003 0 0 46 -182 0 0 2140 46 0 0 227 45 0 0 91 46 0 0 137 45 0 0 45 46 0 0 91 46 0 0 46 45 0 0 45 46 0 0 46 45 0 0 46 46 0 0 45 45 0 0 46 46 0 0 45 91 0 0 46 91 0 0 45 91 0 0 46 183 0 0 45 683 0 0 -45 137 0 0 -46 137 0 0 -45 91 0 0 -46 46 0 0 -45 91 0 0 -46 45 0 0 -45 46 0 0 -46 45 0 0 -46 46 0 0 -45 46 0 0 -91 45 0 0 -46 46 0 0 -91 45 0 0 -91 46 0 0 -136 45 0 0 -2322 -136 0 0 -46 -1003 0 0 455 365 0 0 46z"/>
   <polygon class="fil4" points="2634,3815 2634,3951 2907,3951 2907,3815 2862,3815 2862,3268 2907,3268 2907,3132 2634,3132 2634,3268 2680,3268 2680,3815 "/>
  </g>
 </g>
</svg>
